<svg xmlns="http://www.w3.org/2000/svg" xmlns:xlink="http://www.w3.org/1999/xlink" x="0px" y="0px"
	 viewBox="-77 168.2 456.8 456.8" enable-background="new -77 168.2 456.8 456.8" xml:space="preserve">
	<path fill="#f40056" d="M-69,175.2v442h442v-442H-69z M172,521c-0.1,7.7-1.3,15.6-3.4,23.1c-4.8,17.7-16.4,29.8-33.9,35c-22,6.5-43.6,5.6-63.7-6.7
		c-10.8-6.6-18.3-16.1-23.9-28c11.6-7,22.7-13.7,34-20.6c2.4,3.7,4.5,7.2,6.9,10.5c7.1,9.8,17.8,13.2,29.2,9.6
		c7.5-2.4,11.9-9.3,12.4-19.6c0.1-2.8,0.1-5.5,0.1-8.3c0-44.2,0.1-88.3-0.1-132.5c0-4.5,0.9-6.2,5.8-6c10.7,0.4,21.5,0.2,32.2,0.1
		c3.4-0.1,4.6,1,4.6,4.4C172.1,428.4,172.3,474.7,172,521z M288.1,581.2c-24.6,4.3-48.3,1.3-69.6-12.9c-10.5-7-18.5-16.4-24.6-28.4
		c11.5-6.7,22.6-13.1,34.1-19.8c1.2,1.7,2.3,3.3,3.4,4.9c11.5,16.6,28.5,23.5,47.5,19.2c12.2-2.7,18.6-10.6,17.6-22
		c-0.5-6-3.6-10.7-8.6-13.4c-8.7-4.8-17.7-9.1-26.7-13.2c-12.7-5.7-25.6-11.1-36.1-20.7c-18-16.7-22.8-37.5-16.3-60.4
		c6.3-22.4,23-33.9,45.3-37.8c11-1.9,22-1.6,32.9,0.9c17.1,3.8,29.3,14,38.2,28.7c0.6,1,0.7,3.4,0.1,3.8
		c-10.2,6.8-20.5,13.3-31,20.1c-1.7-2.4-3-4.5-4.5-6.4c-6.7-9.2-15.8-12.7-26.9-10.8c-6.9,1.1-12,4.7-14.1,11.6
		c-2.1,7-1.3,13.8,4.4,18.5c4.9,4,10.6,7.2,16.4,10c11.8,5.8,24.1,10.7,35.7,16.9c14.4,7.7,26.3,18.4,30.9,34.8
		C345.9,539.1,331.8,573.5,288.1,581.2z"/>
</svg>
