<?xml version="1.0" encoding="utf-8"?>
<!-- Generator: Adobe Illustrator 18.1.1, SVG Export Plug-In . SVG Version: 6.00 Build 0)  -->
<svg version="1.1" id="Layer_1" xmlns="http://www.w3.org/2000/svg" xmlns:xlink="http://www.w3.org/1999/xlink" x="0px" y="0px"
	 viewBox="0 0 612 792" enable-background="new 0 0 612 792" xml:space="preserve">
<g>
	<g>
		<g>
			<polygon fill="#F50057" points="674.5,766.8 647.5,766.8 647.5,748.8 656.5,748.8 656.5,739.9 674.5,739.9 			"/>
		</g>
		<g>
			<path fill="#F50057" d="M611.6,766.8h-36v-18h36V766.8z M539.7,766.8h-36v-18h36V766.8z M467.8,766.8h-36v-18h36V766.8z
				 M395.9,766.8h-36v-18h36V766.8z M324,766.8h-36v-18h36V766.8z M252.1,766.8h-35.9v-18h35.9V766.8z M180.2,766.8h-35.9v-18h35.9
				V766.8z M108.3,766.8h-36v-18h36V766.8z M36.4,766.8h-36v-18h36V766.8z"/>
		</g>
		<g>
			<polygon fill="#F50057" points="-35.5,766.8 -62.5,766.8 -62.5,739.9 -44.5,739.9 -44.5,748.8 -35.5,748.8 			"/>
		</g>
		<g>
			<path fill="#F50057" d="M-44.5,703.6h-18v-36.2h18V703.6z M-44.5,631.2h-18V595h18V631.2z M-44.5,558.7h-18v-36.2h18V558.7z
				 M-44.5,486.3h-18V450h18V486.3z M-44.5,413.8h-18v-36.2h18V413.8z M-44.5,341.4h-18v-36.2h18V341.4z M-44.5,268.9h-18v-36.2h18
				V268.9z M-44.5,196.5h-18v-36.2h18V196.5z M-44.5,124h-18V87.8h18V124z"/>
		</g>
		<g>
			<polygon fill="#F50057" points="-44.5,51.5 -62.5,51.5 -62.5,24.6 -35.5,24.6 -35.5,42.6 -44.5,42.6 			"/>
		</g>
		<g>
			<path fill="#F50057" d="M611.6,42.6h-36v-18h36V42.6z M539.7,42.6h-36v-18h36V42.6z M467.8,42.6h-36v-18h36V42.6z M395.9,42.6
				h-35.9v-18h35.9V42.6z M324,42.6h-36v-18h36V42.6z M252.1,42.6h-36v-18h36V42.6z M180.2,42.6h-36v-18h36V42.6z M108.3,42.6h-36
				v-18h36V42.6z M36.4,42.6h-36v-18h36V42.6z"/>
		</g>
		<g>
			<polygon fill="#F50057" points="674.5,51.5 656.5,51.5 656.5,42.6 647.5,42.6 647.5,24.6 674.5,24.6 			"/>
		</g>
		<g>
			<path fill="#F50057" d="M674.5,703.6h-18v-36.2h18V703.6z M674.5,631.2h-18V595h18V631.2z M674.5,558.7h-18v-36.2h18V558.7z
				 M674.5,486.3h-18V450h18V486.3z M674.5,413.8h-18v-36.2h18V413.8z M674.5,341.4h-18v-36.2h18V341.4z M674.5,268.9h-18v-36.2h18
				V268.9z M674.5,196.5h-18v-36.2h18V196.5z M674.5,124h-18V87.8h18V124z"/>
		</g>
	</g>
	<g>
		<path fill="#F50057" d="M657.6,317c4.3-5.4,7.9-4.2,7.9,2.8v202.9c0,6.9-3.5,17.1-7.7,22.6L489.1,763.9c-4.2,5.5-7.7,4.3-7.7-2.6
			V549.9c0-6.9,3.5-17.1,7.9-22.5L657.6,317z"/>
		<path fill="#F50057" d="M481.4,41.9c-5.2,0-15.2,0-22.1,0h-101c-6.9,0-16.2,4.4-20.5,9.9L-50.5,537.1c-4.3,5.4-2.2,9.9,4.7,9.9
			h164.1c6.9,0,16.1-4.5,20.3-10l199.2-258.3c4.2-5.5,7.7-4.3,7.7,2.6v253c0,6.9,5.7,12.6,12.6,12.6h120c6.9,0,12.6-5.7,12.6-12.6
			V54.5C490.8,47.6,486.6,41.9,481.4,41.9z"/>
	</g>
</g>
</svg>
