<?xml version="1.0" encoding="iso-8859-1"?>
<svg version="1.1" xmlns="http://www.w3.org/2000/svg" xmlns:xlink="http://www.w3.org/1999/xlink" x="0px" y="0px"
	 viewBox="0 0 512 512" style="enable-background:new 0 0 512 512;" xml:space="preserve">
	<style>
		path, polygon { fill: #f40056; }
    </style>
		<path d="M60,60v392h392V60H60z M230.381,294.88h-40.32V352h-33.12V181.6h72.24c33.064,0,54.24,30.4,54.24,56.64
			C283.421,269.167,259.911,294.88,230.381,294.88z M335.497,275.92V352h-32.16V226.24h29.52v26.88
			c2.239-4.32,16.32-31.37,45.36-28.32v29.28h0C349.927,254.08,338.857,268.72,335.497,275.92z"/>
		<path d="M227.021,210.64h-36.96v55.2h38.4c11.618,0,21.36-10.84,21.36-27.6C249.821,223.84,241.078,210.64,227.021,210.64z"/>
		<path d="M0,0v512h512V0H0z M482,482H30V30h452V482z"/>
</svg>
