<?xml version="1.0" encoding="utf-8"?>
<svg version="1.1" id="circle_pieces" xmlns="http://www.w3.org/2000/svg" xmlns:xlink="http://www.w3.org/1999/xlink" x="0px"
	 y="0px" viewBox="-49 141.2 511.9 511.8" enable-background="new -49 141.2 511.9 511.8" xml:space="preserve">
	<style>
		path, polygon { fill: #f40056; }
    </style>
<path d="M406.4,553.4c33.8-43,53.9-97.3,53.9-156.2c0-139.8-113.3-253.1-253.1-253.1
	c-30.4,0-59.6,5.4-86.6,15.2C223.4,213.2,359.3,389,406.4,553.4z"/>
<path d="M171,305.5c-39.5-42.5-83.7-76.3-130.5-98.7c-52.9,46.4-86.3,114.5-86.3,190.4
	c0,63.8,23.6,122.1,62.6,166.6C51.1,460.6,115.7,361.1,171,305.5z"/>
<path d="M217.6,362.9C162.8,422,108.2,525.3,88.5,620.7c35.4,18.9,75.8,29.6,118.8,29.6
	c44.1,0,85.6-11.3,121.7-31.2C308.2,522.9,268.9,434.8,217.6,362.9z"/>
</svg>
