<svg xmlns="http://www.w3.org/2000/svg" xmlns:xlink="http://www.w3.org/1999/xlink" x="0px" y="0px"
	 viewBox="-77 168.2 456.8 456.8" enable-background="new -77 168.2 456.8 456.8" xml:space="preserve">
	<style>
        svg { cursor: pointer; }
		path { fill: white; }
    </style>
	<path d="M-65.3,363.2c0.8-3.2,1.6-6.5,2.5-9.7c6.3-20.5,19-36.7,34.6-50.7c33.3-30,72.4-49.3,114.9-62.2
		c18.5-5.6,37.7-7.1,56.8-5.6c17.4,1.4,34.1,5.9,48,17.5c13.4,11.2,17.7,26.1,14.8,42.6c-7,38.7-32,62.5-66.9,77
		c-20,8.3-41.1,11.6-62.8,10.3c-14.2-0.9-27.2-5-36.7-16.3c-2-2.4-3.2-5.5-4.6-8.4c-0.4-0.8,0.2-2,0.3-3c1.1,0.3,2.5,0.3,3.2,1
		c9.7,10.7,22.6,14.1,36,13.5c37.1-1.7,69.5-14.7,94.2-43.4c9-10.4,15.5-22.1,15.5-36.5c0-10.4-4.8-17.7-13.8-22.4
		c-9.8-5.1-20.5-6.8-31.4-7.2c-25.5-0.8-49.7,5.5-72.8,15.6c-24.6,10.7-48.1,23.5-68.7,41c-10.3,8.8-19.8,18.5-25.7,31
		c-9.5,20.1-7.1,38.5,8.6,54.2c9.3,9.3,20,17.3,30.1,25.9c7.2,6.1,14.5,12.1,21.5,18.4c2.1,1.9,3.6,2.3,6.2,0.8
		c12.5-7,25.2-13.7,37.8-20.7c1.7-0.9,3.1-2.4,4.3-3.9c7.7-9.2,16.4-17.1,27.7-21.5c13-5.1,21.9,0.8,22.2,14.8
		c0.1,3.5-0.4,6.9-0.6,9.7c3.2-0.2,6.4-1,9.2-0.4c4.4,0.9,5.6,3.7,4.5,8.3c-3.4,13.5-7,26.9-10,40.5c-1,4.5-2.4,9.3,0.4,14.7
		c1.3-1.8,2.5-3.1,3.2-4.6c12.7-27.9,25.4-55.9,37.9-83.8c1.5-3.4,2.5-7.2,3.2-10.9c0.6-3,2.4-4.6,5.1-4.8c5.4-0.5,10.9-1,16.4-0.9
		c4,0.1,5,2.4,4.1,6.4c-1.7,7.6-4,15.3-4.5,23c-0.5,8.6,2,16.9,7.4,24.9c0.9-1.3,1.8-2.2,2.4-3.3c6.8-12.3,13.9-24.5,20.2-37.1
		c3.1-6.2,4.7-13.2,6.7-19.9c1.1-3.7,3.2-6,6.9-6.3c4.9-0.4,9.8-0.8,14.6-0.4c5.1,0.4,6,2.3,4.3,7c-4.1,11.1-6.1,22.4-2.6,33.9
		c2,6.5,5.3,12.6,7.8,18.4c8.8-2.6,16.6-5.8,24.6-7.1c22.7-3.7,44.3-1.3,61.9,15.3c10.8,10.2,15.9,22.9,12.2,37.9
		c-2.2,9-8.7,14.6-16.9,18.2c-1.2,0.5-3,0-4.5-0.1c0.9-1.1,1.6-2.5,2.7-3.3c10-7,13.9-16,11.1-26c-2.2-7.8-6.8-13.8-13.2-18.6
		c-8.7-6.5-18.9-9.2-29.4-10.8c-13.2-2-26-0.5-38.8,3.2c-3.6,1.1-4.6,2.6-3.3,6.4c5.8,16.4,0.2,26.6-11.2,36.1
		c-6.6,5.5-14.3,8.9-22.5,11.2c-8.7,2.4-15.1-3.7-13.7-12.6c2.3-14.8,11.1-25.6,21.7-35.3c2.8-2.5,3.1-4.2,1.8-7.7
		c-3.5-9.1-6.3-18.5-9.5-27.8c-0.3-0.8-0.6-1.5-1.3-3.2c-1.1,1.9-1.8,3.1-2.5,4.4c-7.3,12.5-14.6,25.1-22.1,37.5
		c-1.3,2.2-1.5,3.9-0.6,6.2c2.8,7.3,4.8,14.6,3.3,22.6c-1.4,7.6-5,13.8-11,18.4c-9.8,7.5-20.9,12-33.5,12.3c-2.1,0-4.2-0.4-6.2-1.1
		c-3.3-1.2-5-4.7-3.5-7.9c1.4-3.1,3.4-6.1,5.6-8.8c7.8-10,15.9-19.8,23.7-29.8c1-1.2,1.4-3.9,0.8-5.2c-5.2-10.5-9.5-21.3-11.5-32.9
		c-0.1-0.6-0.7-1.1-1.3-2.2c-3.7,8.7-6.9,17.2-10.8,25.2c-8.9,18.1-18,36-27.3,53.8c-2.2,4.1-5.5,7.9-8.9,11.2
		c-6.9,6.6-15.3,4.5-17.3-4.8c-1.6-7.6-1-15.6-1.4-23.4c0-0.5,0-1-0.8-1.7c-1.7,3.8-3.1,7.6-5,11.3c-3.9,7.6-7.6,15.4-12.3,22.5
		c-3.7,5.7-10.5,7.4-16.5,4.8c-2.8-1.2-5.6-3.5-7.3-6c-8.6-12.8-11.4-27.1-9.4-42.3c1-8,2.8-15.9,4.3-24.7
		c-8.4,4.8-16.5,9.5-23.7,13.6c1.5,7.5,3.3,14.1,4.1,20.9C51.8,516.8,28,548-5.5,556.5c-4,1-8.2,1.5-12.4,2.2c-2.3,0-4.5,0-6.8,0
		c-0.8-0.3-1.5-0.9-2.3-1c-15.5-2.4-23.5-11.7-23.8-27.5c-0.3-13.9,5-25.5,14.5-35.3c14.2-14.5,31.4-24.7,49.1-34.1
		c2.3-1.2,4.6-2.5,7.7-4.3c-4.5-3.4-8.4-6.4-12.3-9.3c-15.8-11.8-31.9-23.2-47.1-35.7c-10.9-8.9-19.4-20-23.9-33.7
		c-0.9-2.6-1.7-5.3-2.6-7.9C-65.3,367.7-65.3,365.5-65.3,363.2z M30.2,464.5c-17.6,11-35.1,20.7-47.5,37.1
		c-5.1,6.7-8.1,14.4-7.7,23.1c0.3,5.5,3.2,9.2,8.2,9.7c3,0.3,6.3,0.2,9.2-0.6c17.9-4.5,29.3-16.5,36.5-32.9
		C33.9,489.4,33.8,477.5,30.2,464.5z M83.4,474.8c0.6,4.2,0.9,8.4,1.9,12.5c0.5,2.1,2.5,3.8,3.8,5.6c1.8-1.3,3.9-2.4,5.5-4
		c1.2-1.3,2-3.1,2.7-4.7c2.8-6.4,5.9-12.8,8.1-19.4c5-14.7,9.8-29.5,14.3-44.4c1.4-4.6-1.9-7.4-6.2-5.1c-4.1,2.2-8.4,5-11.2,8.6
		C90.6,438.7,84,455.6,83.4,474.8z M240.6,479.2c13.5-2,22.5-18.4,16.8-30.2C249.3,452.8,238.9,471.3,240.6,479.2z M178,493.4
		c10.4,0.6,24.3-15.9,22-25.7C192.6,476.2,185.5,484.6,178,493.4z"/>
</svg>
