<?xml version="1.0" encoding="utf-8"?>
<svg version="1.1" xmlns="http://www.w3.org/2000/svg" xmlns:xlink="http://www.w3.org/1999/xlink" x="0px" y="0px"
	 viewBox="-90.1 -53 798.1 882" enable-background="new -90.1 -53 798.1 882" xml:space="preserve">
<style>
	path, polygon { fill: #f40056; }
</style>
<path d="M700.2,211.5L700.2,211.5c0-14.9-3.3-28.3-9.6-39.5c-6.3-11.2-15.8-20.5-28.6-27.9
	C556.7,83.2,451.4,22.8,346.2-38c-28.4-16.4-55.9-15.8-83.9,0.8C220.3-12.5,10.5,107.8-51.8,144c-25.7,14.9-38.3,37.7-38.3,67.3
	c0,19,0,38.1,0,57.1c0,102.8,0,205.7,0,308.5l0,0c0,0.2,0,0.6,0,0.8c0,14.7,3,27.5,9.2,38.7c6.3,11.4,15.9,21.1,29.1,28.6
	c62.5,36.1,272.3,156.5,314.1,181.2c28.3,16.6,55.7,17.2,84.2,0.8c105.2-60.8,210.5-121.4,315.9-182c13-7.5,22.7-17.2,29.1-28.6
	c6.2-11.2,9.2-24.1,9.2-38.7C700.2,578,700.2,333.7,700.2,211.5z M308.5,520.2c81.6,0,78.5-71.3,78.5-71.3l117.4,6.7
	c0,61.6-37.7,170.6-195.1,170.6c-97.3,0-222.2-56.4-222.2-229.7S214.5,163,309.2,163c148.8,0,200.6,125.4,200.6,176.7L386.8,339
	c0,0-7.3-66.7-78.2-66.7s-87.9,76.5-87.9,124.3C220.6,428.1,233.2,520.2,308.5,520.2z"/>
</svg>
