<?xml version="1.0" encoding="utf-8"?>

<svg xmlns="http://www.w3.org/2000/svg" xmlns:xlink="http://www.w3.org/1999/xlink" x="0px" y="0px"
	 viewBox="0 0 500 500" xml:space="preserve">
	<path fill="#F50057" d="M469.9,194.5c2.7-3.4,4.9-2.6,4.9,1.7v127.1c0,4.4-2.2,10.7-4.8,14.2l-105.7,137c-2.7,3.4-4.8,2.7-4.8-1.6
		V340.4c0-4.4,2.2-10.7,4.9-14.1L469.9,194.5z"/>
	<path fill="#F50057" d="M359.5,22.2c-3.3,0-9.5,0-13.8,0h-63.3c-4.4,0-10.1,2.8-12.8,6.2l-243.2,304c-2.7,3.4-1.4,6.2,3,6.2h102.8
		c4.4,0,10.1-2.8,12.7-6.3l124.8-161.8c2.7-3.4,4.8-2.7,4.8,1.6v158.5c0,4.4,3.6,7.9,7.9,7.9h75.1c4.4,0,7.9-3.6,7.9-7.9V30.1
		C365.5,25.8,362.8,22.2,359.5,22.2z"/>
</svg>
