<?xml version="1.0" encoding="iso-8859-1"?>
<svg version="1.1" xmlns="http://www.w3.org/2000/svg" xmlns:xlink="http://www.w3.org/1999/xlink" x="0px" y="0px"
	 viewBox="0 0 512 512" style="enable-background:new 0 0 512 512;" xml:space="preserve">
<style>
	path, polygon { fill: #fff; }
    </style>
		<path d="M0,0v512h512V0H0z M482,482H30V30h452V482z"/>
		<path d="M210.942,210.64h-36.96v55.2h38.4c11.618,0,21.36-10.84,21.36-27.6C233.743,223.84,225,210.64,210.942,210.64z"/>
		<path d="M60,60v392h392V60H60z M214.303,294.88h-40.32V352h-33.12V181.6h72.24c33.064,0,54.24,30.4,54.24,56.64
			C267.343,269.167,243.833,294.88,214.303,294.88z M334.779,354.4c-29.029,0-49.68-13.2-56.88-19.44l12-20.16
			c7.68,5.441,25.351,16.56,44.16,16.56c12.191,0,20.64-5.11,20.64-13.92c0-10.815-17.843-14.317-27.6-17.04
			c-8.16-2.239-44.88-7.4-44.88-35.04c0-26.61,23.156-41.52,49.44-41.52c27.591,0,42.319,11.201,49.2,17.28l-12.96,19.44
			c-6.401-4.8-20.649-13.92-36.48-13.92c-11.669,0-19.2,4.985-19.2,14.16c0,11.45,20.078,14.722,24.72,15.84
			c8.64,2.242,48.72,8.36,48.72,37.92C385.659,349.5,350.458,354.4,334.779,354.4z"/>
</svg>
