
<svg xmlns="http://www.w3.org/2000/svg" xmlns:xlink="http://www.w3.org/1999/xlink" x="0px" y="0px"
	 viewBox="-77 168.2 456.8 456.8" enable-background="new -77 168.2 456.8 456.8" xml:space="preserve">
	<style>
        svg { cursor: pointer; }
		path { fill: white; }
    </style>
	<path d="M25.9,324c-4.2-18.5-6.9-36.7-6.7-55.2c0.2-13.5,1.8-26.8,7.4-39.3c6-13.4,15.8-22.4,30.9-24.2c10.4-1.3,20.4,0.9,30.1,4.4
		c17.2,6.3,32.4,16.3,46.6,27.6c5.6,4.5,11,9.2,16.6,14c5-4.3,10-8.7,15.1-12.9c15.5-12.6,32-23.6,51.1-30.1
		c9.5-3.2,19.3-5,29.3-3.1c15.3,2.9,24.2,13,29.6,26.7c4.2,10.6,5.8,21.8,6.2,33.1c0.7,19-1.7,37.7-5.9,56.1c-0.5,2.2,0,3,2.2,3.7
		c19.7,6.2,38.7,14,55.9,25.6c7.7,5.2,14.8,11.1,20.7,18.2c14.9,17.9,14.7,38.1-0.6,55.7c-11.4,13.1-25.7,22.3-41.2,29.5
		c-11.9,5.5-24.1,10-36.8,15.2c0.6,3.2,1.3,7.1,2.1,10.9c3.2,16,4.8,32.1,4.1,48.3c-0.6,13-2.6,25.7-8.6,37.4
		c-8.2,16-22.9,23.5-40.6,21.4c-17.6-2.1-33.1-9.4-47.4-19.2c-11.5-7.9-22.1-17-33.1-25.6c-0.6-0.4-1.1-0.9-1.7-1.4
		c-5.2,4.5-10.3,9.1-15.7,13.3c-15.6,12.5-32.1,23.5-51.2,29.9c-9,3-18.2,4.5-27.6,3.1c-13.2-1.9-22.3-9.6-28.4-21.2
		c-5-9.7-7.2-20.2-8.2-31c-2-21.6,0.7-42.8,5.3-63.8c0.1-0.5,0.2-1,0.2-1.5c0-0.4,0-0.8,0-1.3c-6.3-2.2-12.6-4.3-18.8-6.7
		c-19.6-7.6-38.4-16.7-53.8-31.4c-4-3.8-7.6-8.1-10.6-12.7c-9.4-14.2-9.3-28.6-0.2-43c7.1-11.2,17.1-19.2,28.1-26.3
		c16.1-10.3,33.5-17.5,51.6-23.3C23.4,324.9,24.5,324.5,25.9,324z M151.2,325.9c-12.5,0.6-25.1,1.1-37.7,1.9
		c-1.2,0.1-2.8,1.2-3.5,2.3c-14.1,20.4-26.4,41.9-37,64.4c-0.5,1.1-0.6,2.8-0.1,3.9c10.7,22.7,23.2,44.3,37.5,64.8
		c0.6,0.9,1.9,1.7,2.9,1.7c8.3,0.5,16.6,1.3,24.9,1.2c16.6-0.1,33.2-0.7,49.8-1.3c1.4,0,3.2-1.1,3.9-2.2c14.1-20.4,26.4-42,37-64.4
		c0.6-1.2,0.6-3.1,0.1-4.2c-10.6-22.6-23.1-44.1-37.4-64.6c-0.6-0.9-2-1.8-3.1-1.9C176.1,327,163.7,326.5,151.2,325.9z M271.4,449.5
		c16.5-5.2,32.5-11.5,47.2-20.5c8.2-5,15.8-10.6,22-18.1c8.2-10,8.5-18.6,0.4-28.5c-3.6-4.4-7.9-8.4-12.4-11.9
		c-16-12.3-34.3-19.9-53.2-26.2c-1.4-0.5-2.8-0.9-3.5-1.1c-6.7,17.5-13.3,34.6-19.8,51.7c-0.4,1-0.1,2.4,0.4,3.4
		c3.7,9.4,7.6,18.8,11.2,28.2C266.5,434,268.8,441.7,271.4,449.5z M45.1,474.1c-0.2,0.5-0.4,0.9-0.5,1.3c-4.4,20.4-7,41-4.5,61.9
		c0.9,7.8,2.8,15.5,7,22.4c2.9,4.7,7,7.6,12.5,8.5c7.2,1.2,13.9-0.6,20.5-2.8c13.4-4.6,25.3-12.1,36.5-20.7c7-5.4,13.8-11.2,20.8-17
		c-1.1-1.3-1.9-2.1-2.6-3c-10.7-12.9-21.5-25.8-32.2-38.8c-1.5-1.9-3.1-2.7-5.3-2.9c-8.2-1.1-16.5-2.1-24.6-3.4
		C63.5,477.9,54.4,475.9,45.1,474.1z M165.4,264.5c12,14.8,23.5,29.2,35.2,43.5c0.5,0.7,1.7,1.1,2.6,1.2c17.2,3,34.5,6,51.7,9
		c1.9,0.3,2.5-0.2,2.8-2c3.8-18.3,6.3-36.8,4.8-55.6c-0.7-8.7-2.1-17.3-6.1-25.2c-2.9-5.8-7.1-10-13.8-11
		c-5.4-0.8-10.7-0.2-15.8,1.3C202.4,232.8,183.5,248.5,165.4,264.5z M30.5,343c-17.3,5.5-33.8,12-48.9,21.6
		c-8.5,5.4-16.5,11.5-22.3,20c-5.5,8.2-5.7,15.3,0.1,23.3c2.5,3.5,5.4,6.8,8.6,9.6c13.7,12.2,29.9,20,46.8,26.5
		c5.3,2,10.7,3.8,16,5.6c0.4-0.7,0.5-0.9,0.6-1.2c6-16.6,12.1-33.2,18.1-49.9c0.5-1.3,0.4-3.2-0.1-4.5c-3.4-8.9-7.2-17.6-10.5-26.5
		C35.9,359.5,33.3,351.4,30.5,343z M165.8,527.8c10.4,9.6,21.8,18.8,34.4,26.4c10.5,6.4,21.3,12,33.7,13.5
		c11.2,1.4,18.3-0.3,23.5-12.4c2.2-5,3.5-10.5,4.5-15.9c2.1-11.6,1.8-23.3,0.6-35c-1.1-10.2-3.1-20.4-4.6-30.5
		c-0.9-0.1-1.3-0.2-1.5-0.1c-17.4,4.3-35.1,7.3-52.9,9.2c-1,0.1-2.2,0.7-2.8,1.5C189,498.8,177.5,513.2,165.8,527.8z M44.7,318.7
		c2.5-0.6,4.7-1.1,6.8-1.5c15-2.5,30-5.1,45.1-7.5c2.8-0.4,4.7-1.5,6.5-3.8c6.7-8.8,13.6-17.5,20.7-26c4.2-5,8.7-9.8,13.1-14.7
		c-14-12.8-28.7-24.4-45.7-32.9c-8.1-4-16.5-7.2-25.7-7.9c-9.8-0.7-16.4,2.5-20.3,11.6c-2.4,5.5-4.2,11.4-5.1,17.3
		C36.7,275.2,40,296.7,44.7,318.7z M150.7,278.5c-8.3,9.7-16.2,18.9-24.4,28.4c16.7,0,32.4,0,49.1,0
		C167,297.2,159.1,288.1,150.7,278.5z M175.5,485.7c-16.7,0-32.4,0-48.9,0c8.3,9.6,16.2,18.7,24.6,28.3
		C159.5,504.4,167.3,495.3,175.5,485.7z M49.2,337.5c4.1,11.9,8.1,23.3,12.2,35.1c8.2-14.3,16-28,24.2-42.1
		C73.3,332.8,61.6,335.1,49.2,337.5z M240.6,419.9c-8.1,14.2-15.9,27.8-24.2,42.2c12.2-2.4,23.9-4.7,36.3-7.1
		C248.6,442.9,244.6,431.5,240.6,419.9z M85.6,462c-8.3-14.2-16.1-27.7-24.3-41.7c-4,11.7-7.8,22.9-11.9,34.8
		C61.8,457.4,73.5,459.7,85.6,462z M216.3,330.5c8.2,14,16,27.6,24.3,41.7c4-11.6,7.8-22.9,11.9-34.8
		C240.1,335.1,228.4,332.8,216.3,330.5z"/>
	<path d="M151,436.2c-22.1,0-40-17.7-40-39.7c0-22.4,18-40.5,40.1-40.4c22,0.1,39.9,18.1,40,40C191,418.4,173.2,436.2,151,436.2z"/>
</svg>
